<svg width="153" height="44" fill="none" xmlns="http://www.w3.org/2000/svg"><g filter="url(#a)"><path d="M31.22 0v35.3h-7.6v-2.4c-1.7 1.9-4.1 3.1-7.51 3.1C9.5 36 4 30.2 4 22.7 4 15.2 9.5 9.4 16.1 9.4c3.41 0 5.91 1.2 7.51 3.1V0h7.6Zm-7.6 22.7c0-3.8-2.5-6.2-6.01-6.2-3.5 0-6 2.4-6 6.2 0 3.8 2.5 6.2 6 6.2 3.5-.1 6-2.4 6-6.2Z" fill="#000"/></g><g filter="url(#b)"><path d="M47.73 29.2c2.1 0 3.8-.8 4.8-1.9l6.1 3.5c-2.5 3.4-6.2 5.2-11 5.2-8.6 0-14.01-5.8-14.01-13.3 0-7.5 5.4-13.3 13.4-13.3 7.41 0 12.82 5.7 12.82 13.3 0 1.1-.1 2.1-.3 3H41.63c1 2.6 3.3 3.5 6.1 3.5Zm4.6-9.1c-.8-2.9-3.1-4-5.4-4-2.9 0-4.8 1.4-5.5 4h10.9Z" fill="#000"/></g><g filter="url(#c)"><path d="m86.16 10.1-9.31 25.2h-8.6l-9.31-25.2h8.4l5.3 16 5.31-16h8.2Z" fill="#000"/></g><g filter="url(#d)"><path d="M87.46 10.1h7.6v25.2h-7.6V10.1Z" fill="#000"/></g><g filter="url(#e)"><path d="M97.67 22.7c0-7.5 5.7-13.3 13.4-13.3 4.9 0 9.21 2.6 11.41 6.5l-6.6 3.8c-.9-1.8-2.7-2.8-4.9-2.8-3.3 0-5.71 2.4-5.71 5.8 0 3.5 2.4 5.8 5.7 5.8 2.2 0 4.1-1.1 4.9-2.8l6.61 3.8c-2.1 3.9-6.4 6.5-11.4 6.5-7.71 0-13.41-5.8-13.41-13.3Z" fill="#000"/></g><g filter="url(#f)"><path d="M136.9 29.2c2.1 0 3.8-.8 4.8-1.9l6.1 3.5c-2.5 3.4-6.2 5.2-11 5.2-8.61 0-14.02-5.8-14.02-13.3 0-7.5 5.5-13.3 13.41-13.3 7.4 0 12.81 5.7 12.81 13.3 0 1.1-.1 2.1-.3 3h-17.91c1 2.6 3.3 3.5 6.1 3.5Zm4.7-9.1c-.8-2.9-3.1-4-5.4-4-2.91 0-4.81 1.4-5.51 4h10.9Z" fill="#000"/></g><defs><filter id="a" x="0" y="0" width="35.22" height="44" filterUnits="userSpaceOnUse" color-interpolation-filters="sRGB"><feFlood flood-opacity="0" result="BackgroundImageFix"/><feColorMatrix in="SourceAlpha" values="0 0 0 0 0 0 0 0 0 0 0 0 0 0 0 0 0 0 127 0" result="hardAlpha"/><feOffset dy="4"/><feGaussianBlur stdDeviation="2"/><feComposite in2="hardAlpha" operator="out"/><feColorMatrix values="0 0 0 0 0 0 0 0 0 0 0 0 0 0 0 0 0 0 0.25 0"/><feBlend in2="BackgroundImageFix" result="effect1_dropShadow_28838_554"/><feColorMatrix in="SourceAlpha" values="0 0 0 0 0 0 0 0 0 0 0 0 0 0 0 0 0 0 127 0" result="hardAlpha"/><feOffset dy="4"/><feGaussianBlur stdDeviation="2"/><feComposite in2="hardAlpha" operator="out"/><feColorMatrix values="0 0 0 0 0 0 0 0 0 0 0 0 0 0 0 0 0 0 0.25 0"/><feBlend in2="effect1_dropShadow_28838_554" result="effect2_dropShadow_28838_554"/><feBlend in="SourceGraphic" in2="effect2_dropShadow_28838_554" result="shape"/></filter><filter id="b" x="29.62" y="9.4" width="34.22" height="34.6" filterUnits="userSpaceOnUse" color-interpolation-filters="sRGB"><feFlood flood-opacity="0" result="BackgroundImageFix"/><feColorMatrix in="SourceAlpha" values="0 0 0 0 0 0 0 0 0 0 0 0 0 0 0 0 0 0 127 0" result="hardAlpha"/><feOffset dy="4"/><feGaussianBlur stdDeviation="2"/><feComposite in2="hardAlpha" operator="out"/><feColorMatrix values="0 0 0 0 0 0 0 0 0 0 0 0 0 0 0 0 0 0 0.25 0"/><feBlend in2="BackgroundImageFix" result="effect1_dropShadow_28838_554"/><feColorMatrix in="SourceAlpha" values="0 0 0 0 0 0 0 0 0 0 0 0 0 0 0 0 0 0 127 0" result="hardAlpha"/><feOffset dy="4"/><feGaussianBlur stdDeviation="2"/><feComposite in2="hardAlpha" operator="out"/><feColorMatrix values="0 0 0 0 0 0 0 0 0 0 0 0 0 0 0 0 0 0 0.25 0"/><feBlend in2="effect1_dropShadow_28838_554" result="effect2_dropShadow_28838_554"/><feBlend in="SourceGraphic" in2="effect2_dropShadow_28838_554" result="shape"/></filter><filter id="c" x="54.94" y="10.1" width="35.22" height="33.2" filterUnits="userSpaceOnUse" color-interpolation-filters="sRGB"><feFlood flood-opacity="0" result="BackgroundImageFix"/><feColorMatrix in="SourceAlpha" values="0 0 0 0 0 0 0 0 0 0 0 0 0 0 0 0 0 0 127 0" result="hardAlpha"/><feOffset dy="4"/><feGaussianBlur stdDeviation="2"/><feComposite in2="hardAlpha" operator="out"/><feColorMatrix values="0 0 0 0 0 0 0 0 0 0 0 0 0 0 0 0 0 0 0.25 0"/><feBlend in2="BackgroundImageFix" result="effect1_dropShadow_28838_554"/><feColorMatrix in="SourceAlpha" values="0 0 0 0 0 0 0 0 0 0 0 0 0 0 0 0 0 0 127 0" result="hardAlpha"/><feOffset dy="4"/><feGaussianBlur stdDeviation="2"/><feComposite in2="hardAlpha" operator="out"/><feColorMatrix values="0 0 0 0 0 0 0 0 0 0 0 0 0 0 0 0 0 0 0.25 0"/><feBlend in2="effect1_dropShadow_28838_554" result="effect2_dropShadow_28838_554"/><feBlend in="SourceGraphic" in2="effect2_dropShadow_28838_554" result="shape"/></filter><filter id="d" x="83.46" y="10.1" width="15.61" height="33.2" filterUnits="userSpaceOnUse" color-interpolation-filters="sRGB"><feFlood flood-opacity="0" result="BackgroundImageFix"/><feColorMatrix in="SourceAlpha" values="0 0 0 0 0 0 0 0 0 0 0 0 0 0 0 0 0 0 127 0" result="hardAlpha"/><feOffset dy="4"/><feGaussianBlur stdDeviation="2"/><feComposite in2="hardAlpha" operator="out"/><feColorMatrix values="0 0 0 0 0 0 0 0 0 0 0 0 0 0 0 0 0 0 0.25 0"/><feBlend in2="BackgroundImageFix" result="effect1_dropShadow_28838_554"/><feColorMatrix in="SourceAlpha" values="0 0 0 0 0 0 0 0 0 0 0 0 0 0 0 0 0 0 127 0" result="hardAlpha"/><feOffset dy="4"/><feGaussianBlur stdDeviation="2"/><feComposite in2="hardAlpha" operator="out"/><feColorMatrix values="0 0 0 0 0 0 0 0 0 0 0 0 0 0 0 0 0 0 0.25 0"/><feBlend in2="effect1_dropShadow_28838_554" result="effect2_dropShadow_28838_554"/><feBlend in="SourceGraphic" in2="effect2_dropShadow_28838_554" result="shape"/></filter><filter id="e" x="93.67" y="9.4" width="32.82" height="34.6" filterUnits="userSpaceOnUse" color-interpolation-filters="sRGB"><feFlood flood-opacity="0" result="BackgroundImageFix"/><feColorMatrix in="SourceAlpha" values="0 0 0 0 0 0 0 0 0 0 0 0 0 0 0 0 0 0 127 0" result="hardAlpha"/><feOffset dy="4"/><feGaussianBlur stdDeviation="2"/><feComposite in2="hardAlpha" operator="out"/><feColorMatrix values="0 0 0 0 0 0 0 0 0 0 0 0 0 0 0 0 0 0 0.25 0"/><feBlend in2="BackgroundImageFix" result="effect1_dropShadow_28838_554"/><feColorMatrix in="SourceAlpha" values="0 0 0 0 0 0 0 0 0 0 0 0 0 0 0 0 0 0 127 0" result="hardAlpha"/><feOffset dy="4"/><feGaussianBlur stdDeviation="2"/><feComposite in2="hardAlpha" operator="out"/><feColorMatrix values="0 0 0 0 0 0 0 0 0 0 0 0 0 0 0 0 0 0 0.25 0"/><feBlend in2="effect1_dropShadow_28838_554" result="effect2_dropShadow_28838_554"/><feBlend in="SourceGraphic" in2="effect2_dropShadow_28838_554" result="shape"/></filter><filter id="f" x="118.78" y="9.4" width="34.22" height="34.6" filterUnits="userSpaceOnUse" color-interpolation-filters="sRGB"><feFlood flood-opacity="0" result="BackgroundImageFix"/><feColorMatrix in="SourceAlpha" values="0 0 0 0 0 0 0 0 0 0 0 0 0 0 0 0 0 0 127 0" result="hardAlpha"/><feOffset dy="4"/><feGaussianBlur stdDeviation="2"/><feComposite in2="hardAlpha" operator="out"/><feColorMatrix values="0 0 0 0 0 0 0 0 0 0 0 0 0 0 0 0 0 0 0.25 0"/><feBlend in2="BackgroundImageFix" result="effect1_dropShadow_28838_554"/><feColorMatrix in="SourceAlpha" values="0 0 0 0 0 0 0 0 0 0 0 0 0 0 0 0 0 0 127 0" result="hardAlpha"/><feOffset dy="4"/><feGaussianBlur stdDeviation="2"/><feComposite in2="hardAlpha" operator="out"/><feColorMatrix values="0 0 0 0 0 0 0 0 0 0 0 0 0 0 0 0 0 0 0.25 0"/><feBlend in2="effect1_dropShadow_28838_554" result="effect2_dropShadow_28838_554"/><feBlend in="SourceGraphic" in2="effect2_dropShadow_28838_554" result="shape"/></filter></defs></svg>