<svg width="120" height="123" fill="none" xmlns="http://www.w3.org/2000/svg"><path d="m112.5 36.54-26.74-2.17-9.25-21.11s-.46-2.77-6-8.48C64.94-.92 53.7 1.4 53.7 1.4S29.8 5.86 21.95 7.71c-7.86 1.85-8.17 9.86-8.17 9.86l-3.08 22.04-.64 4.4-.01.09-.02.12a7.43 7.43 0 1 0 14.74.01l4.73-21.57 11.56-1.39-1.8 5.88 9.9 1.92a3.01 3.01 0 0 1 2.38 3.52l-7.41 38.24a3.01 3.01 0 0 1-2.95 2.43l-.22-.02c-.73.1-1.29-.04-1.29-.04l-9.4-1.84-3.08 17.1-23.56 20.36a7.41 7.41 0 0 0 4.64 13.23 7.4 7.4 0 0 0 5.22-2.14s27.72-22.05 29.57-23.6c1.85-1.53 2.77-3.84 2.77-3.84s4.54-13.95 5.78-16.88c.85-2 4.94-1.08 4.94-1.08l22.88 8.63 7.62 29.06a7.43 7.43 0 1 0 14.59-2.7c-.85-4.97-4.61-27.05-5.57-31.83-1.08-5.4-4.62-6.93-4.62-6.93S70.19 59.18 68.81 58.4c-1.39-.77-1.08-2.77-1.08-2.77l3.93-14.33 2.77 5.85s1.62 3.28 4.09 3.4l33.35.81a7.43 7.43 0 0 0 .63-14.83Z" fill="#3A3A3A"/></svg>